<svg xmlns="http://www.w3.org/2000/svg" viewBox="0 0 100 100" width="100" height="100">
  <!-- Book -->
  <g transform="translate(15, 15)">
    <!-- Book cover - perspective side -->
    <path d="M10 10 L10 70 L65 70 L65 10 Z" fill="#4caf50" />
    <!-- Book spine - 3D effect -->
    <path d="M5 15 L10 10 L10 70 L5 75 Z" fill="#2e7d32" />
    <!-- Book bottom - 3D effect -->
    <path d="M5 75 L10 70 L65 70 L70 75 Z" fill="#388e3c" />
    <!-- Book pages - side view -->
    <path d="M65 10 L70 15 L70 75 L65 70 Z" fill="#f5f5f5" />
    <!-- Book top - 3D effect -->
    <path d="M10 10 L5 15 L70 15 L65 10 Z" fill="#43a047" />
    <!-- Book pages - top view -->
    <path d="M15 15 L15 65 L65 65 L65 15 Z" fill="#f5f5f5" />
    <!-- Book page folds -->
    <path d="M15 15 L15 65 L17 63 L17 17 Z" fill="#e0e0e0" />
    <!-- Book page lines -->
    <g fill="none" stroke="#bdbdbd" stroke-width="0.5">
      <line x1="20" y1="25" x2="60" y2="25" />
      <line x1="20" y1="35" x2="60" y2="35" />
      <line x1="20" y1="45" x2="60" y2="45" />
      <line x1="20" y1="55" x2="45" y2="55" />
    </g>
    <!-- Bookmark -->
    <path d="M55 10 L55 25 L60 20 L65 25 L65 10 Z" fill="#f44336" />
    <!-- Shine effect -->
    <path d="M15 15 L65 15 L60 20 L20 20 Z" fill="#ffffff" opacity="0.3" />
  </g>
</svg> 