<?xml version="1.0" encoding="UTF-8"?>
<svg width="128px" height="128px" viewBox="0 0 128 128" xmlns="http://www.w3.org/2000/svg">
  <g>
    <!-- Background -->
    <circle cx="64" cy="64" r="58" fill="#E2E8F0" opacity="0.8"/>
    
    <!-- Bicycle frame and components -->
    <g transform="translate(24, 55)">
      <!-- Back wheel -->
      <circle cx="15" cy="30" r="14" fill="none" stroke="#334155" stroke-width="3"/>
      <circle cx="15" cy="30" r="10" fill="none" stroke="#475569" stroke-width="1" stroke-dasharray="2,2">
        <animateTransform
          attributeName="transform"
          attributeType="XML"
          type="rotate"
          from="0 15 30"
          to="360 15 30"
          dur="5s"
          repeatCount="indefinite"/>
      </circle>
      <circle cx="15" cy="30" r="2" fill="#334155"/>
      
      <!-- Front wheel -->
      <circle cx="65" cy="30" r="14" fill="none" stroke="#334155" stroke-width="3"/>
      <circle cx="65" cy="30" r="10" fill="none" stroke="#475569" stroke-width="1" stroke-dasharray="2,2">
        <animateTransform
          attributeName="transform"
          attributeType="XML"
          type="rotate"
          from="0 65 30"
          to="360 65 30"
          dur="5s"
          repeatCount="indefinite"/>
      </circle>
      <circle cx="65" cy="30" r="2" fill="#334155"/>
      
      <!-- Frame -->
      <path d="M15,30 L40,5 L65,30" fill="none" stroke="#3B82F6" stroke-width="4" stroke-linejoin="round"/>
      <path d="M40,5 L54,21" fill="none" stroke="#3B82F6" stroke-width="4" stroke-linejoin="round"/>
      <path d="M54,21 L40,30" fill="none" stroke="#3B82F6" stroke-width="4" stroke-linejoin="round"/>
      <path d="M40,30 L15,30" fill="none" stroke="#3B82F6" stroke-width="4" stroke-linejoin="round"/>
      
      <!-- Handlebar -->
      <path d="M65,30 L60,15 C60,15 63,12 68,15 L70,10" fill="none" stroke="#334155" stroke-width="2" stroke-linecap="round"/>
      
      <!-- Seat -->
      <line x1="40" y1="5" x2="35" y2="0" stroke="#334155" stroke-width="2"/>
      <ellipse cx="32" cy="0" rx="4" ry="1" fill="#334155"/>
      
      <!-- Pedals and chainring -->
      <circle cx="40" cy="30" r="5" fill="none" stroke="#334155" stroke-width="2"/>
      <circle cx="40" cy="30" r="1" fill="#334155"/>
      
      <!-- Pedal crank -->
      <line x1="40" y1="30" x2="48" y2="38" stroke="#334155" stroke-width="2" stroke-linecap="round">
        <animateTransform
          attributeName="transform"
          attributeType="XML"
          type="rotate"
          from="0 40 30"
          to="360 40 30"
          dur="5s"
          repeatCount="indefinite"/>
      </line>
      
      <!-- Pedal -->
      <rect x="47" y="37" width="6" height="2" rx="1" fill="#334155">
        <animateTransform
          attributeName="transform"
          attributeType="XML"
          type="rotate"
          from="0 40 30"
          to="360 40 30"
          dur="5s"
          repeatCount="indefinite"/>
      </rect>
      
      <!-- Chain -->
      <path d="M40,35 C35,40 20,40 15,35" fill="none" stroke="#64748B" stroke-width="1" stroke-dasharray="2,1"/>
    </g>
    
    <!-- Cyclist (simplified) -->
    <g transform="translate(50, 35)">
      <!-- Head -->
      <circle cx="12" cy="8" r="7" fill="#FB923C"/>
      
      <!-- Helmet -->
      <path d="M6,5 Q12,-1 18,5" fill="none" stroke="#F97316" stroke-width="2"/>
      
      <!-- Body -->
      <line x1="12" y1="15" x2="12" y2="30" stroke="#2563EB" stroke-width="3" stroke-linecap="round"/>
      
      <!-- Arms -->
      <path d="M12,18 C7,15 0,20 -2,22" fill="none" stroke="#2563EB" stroke-width="2" stroke-linecap="round"/>
      
      <!-- Legs (animated) -->
      <path d="M12,30 C15,40 18,45 25,50" fill="none" stroke="#FB923C" stroke-width="3" stroke-linecap="round">
        <animate attributeName="d" 
                 values="M12,30 C15,40 18,45 25,50;
                        M12,30 C12,35 14,42 17,45;
                        M12,30 C15,40 18,45 25,50;" 
                 dur="1s" 
                 repeatCount="indefinite"/>
      </path>
    </g>
  </g>
</svg> 