<svg xmlns="http://www.w3.org/2000/svg" viewBox="0 0 100 100" width="100" height="100">
  <!-- Game controller -->
  <g transform="translate(10, 25)">
    <!-- Controller base -->
    <path d="M10 15 C5 25, 5 40, 10 50 L30 60 C40 65, 50 65, 60 60 L70 50 C75 40, 75 25, 70 15 L60 5 C50 0, 40 0, 30 5 Z" fill="#7e57c2" />
    <!-- Controller middle shadow -->
    <path d="M10 15 C5 25, 5 40, 10 50 L30 60 C40 65, 50 65, 60 60 L70 50 C75 40, 75 25, 70 15 L60 5 C50 0, 40 0, 30 5 Z" fill="url(#controllerGradient)" />
    <!-- Controller bottom shadow -->
    <path d="M10 50 L30 60 C40 65, 50 65, 60 60 L70 50 C75 40, 75 35, 70 45 L60 55 C50 60, 40 60, 30 55 L10 50 Z" fill="#4527a0" />
    
    <!-- Left side buttons -->
    <g transform="translate(20, 30)">
      <!-- D-pad vertical -->
      <rect x="5" y="0" width="5" height="15" rx="1" ry="1" fill="#e0e0e0" />
      <!-- D-pad horizontal -->
      <rect x="0" y="5" width="15" height="5" rx="1" ry="1" fill="#e0e0e0" />
      <!-- D-pad shadow -->
      <path d="M5 15 L10 15 L10 17 L5 17 Z" fill="#9e9e9e" />
      <path d="M0 10 L15 10 L15 12 L0 12 Z" fill="#9e9e9e" />
    </g>
    
    <!-- Right side buttons -->
    <g transform="translate(55, 25)">
      <!-- Face buttons -->
      <circle cx="0" cy="0" r="3" fill="#f44336" />
      <circle cx="10" cy="0" r="3" fill="#4caf50" />
      <circle cx="0" cy="10" r="3" fill="#ffeb3b" />
      <circle cx="10" cy="10" r="3" fill="#2196f3" />
      <!-- Buttons shadow -->
      <ellipse cx="0" cy="3" rx="3" ry="1" fill="#d32f2f" opacity="0.5" />
      <ellipse cx="10" cy="3" rx="3" ry="1" fill="#388e3c" opacity="0.5" />
      <ellipse cx="0" cy="13" rx="3" ry="1" fill="#fbc02d" opacity="0.5" />
      <ellipse cx="10" cy="13" rx="3" ry="1" fill="#1976d2" opacity="0.5" />
    </g>
    
    <!-- Left analog stick -->
    <g transform="translate(25, 15)">
      <circle cx="0" cy="0" r="6" fill="#424242" />
      <circle cx="0" cy="0" r="4" fill="#9575cd" />
      <circle cx="0" cy="0" r="2" fill="#673ab7" />
      <ellipse cx="0" cy="0" rx="1" ry="0.5" fill="#ffffff" opacity="0.5" transform="rotate(-45)" />
    </g>
    
    <!-- Right analog stick -->
    <g transform="translate(55, 45)">
      <circle cx="0" cy="0" r="6" fill="#424242" />
      <circle cx="0" cy="0" r="4" fill="#9575cd" />
      <circle cx="0" cy="0" r="2" fill="#673ab7" />
      <ellipse cx="0" cy="0" rx="1" ry="0.5" fill="#ffffff" opacity="0.5" transform="rotate(-45)" />
    </g>
    
    <!-- Middle section buttons -->
    <g transform="translate(40, 25)">
      <rect x="-3" y="0" width="6" height="2" rx="1" ry="1" fill="#e0e0e0" />
      <rect x="-8" y="5" width="16" height="2" rx="1" ry="1" fill="#e0e0e0" />
    </g>
  </g>
  
  <!-- Definitions for gradients and effects -->
  <defs>
    <linearGradient id="controllerGradient" x1="0%" y1="0%" x2="100%" y2="100%">
      <stop offset="0%" stop-color="#9575cd" stop-opacity="0.7" />
      <stop offset="100%" stop-color="#5e35b1" stop-opacity="0.7" />
    </linearGradient>
  </defs>
  
  <!-- Floating particles for dynamic effect -->
  <g opacity="0.6">
    <circle cx="15" cy="15" r="1" fill="#b39ddb" />
    <circle cx="80" cy="25" r="0.8" fill="#b39ddb" />
    <circle cx="70" cy="70" r="1.2" fill="#b39ddb" />
    <circle cx="25" cy="80" r="1" fill="#b39ddb" />
    <circle cx="50" cy="10" r="0.5" fill="#b39ddb" />
  </g>
</svg> 