<?xml version="1.0" encoding="UTF-8"?>
<svg width="128px" height="128px" viewBox="0 0 128 128" xmlns="http://www.w3.org/2000/svg">
  <defs>
    <linearGradient id="skyGradient" x1="0%" y1="0%" x2="0%" y2="100%">
      <stop offset="0%" stop-color="#93C5FD" stop-opacity="0.8"/>
      <stop offset="100%" stop-color="#DBEAFE" stop-opacity="0.9"/>
    </linearGradient>
    <linearGradient id="mountainGradient" x1="0%" y1="0%" x2="100%" y2="100%">
      <stop offset="0%" stop-color="#84CC16" stop-opacity="0.8"/>
      <stop offset="100%" stop-color="#65A30D" stop-opacity="1"/>
    </linearGradient>
    <filter id="sunGlow" x="-20%" y="-20%" width="140%" height="140%">
      <feGaussianBlur stdDeviation="2" result="blur" />
      <feComposite in="SourceGraphic" in2="blur" operator="over" />
    </filter>
  </defs>
  
  <g>
    <!-- Background sky -->
    <rect x="0" y="0" width="128" height="128" rx="64" ry="64" fill="url(#skyGradient)"/>
    
    <!-- Sun with animation -->
    <circle cx="64" cy="40" r="15" fill="#FBBF24" filter="url(#sunGlow)">
      <animate 
        attributeName="cy" 
        values="45;30;45" 
        dur="10s" 
        repeatCount="indefinite" />
      <animate 
        attributeName="fill" 
        values="#FBBF24;#F59E0B;#FBBF24" 
        dur="10s" 
        repeatCount="indefinite" />
    </circle>
    
    <!-- Mountain ranges -->
    <g>
      <!-- Background mountains -->
      <path d="M0,128 L0,80 L20,65 L40,85 L60,55 L80,78 L100,62 L128,75 L128,128 Z" 
            fill="#65A30D" opacity="0.6"/>
      
      <!-- Foreground mountains -->
      <path d="M0,128 L0,90 L30,75 L50,95 L75,60 L100,90 L128,80 L128,128 Z" 
            fill="url(#mountainGradient)"/>
      
      <!-- Mountain snow caps -->
      <path d="M30,75 L35,70 L40,73 L50,95 M75,60 L80,55 L85,60 L90,65" 
            stroke="white" stroke-width="3" stroke-linecap="round" opacity="0.8"/>
    </g>
    
    <!-- Hiking trail -->
    <path d="M20,128 C30,120 40,115 50,110 C60,105 70,110 80,105 C90,100 100,108 110,115 C120,122 128,128 128,128" 
          stroke="#92400E" stroke-width="3" stroke-dasharray="2,3" fill="none"/>
    
    <!-- Hiker -->
    <g transform="translate(50, 90)">
      <!-- Hiker body -->
      <circle cx="0" cy="0" r="5" fill="#0F172A"/> <!-- Head -->
      <line x1="0" y1="5" x2="0" y2="15" stroke="#0F172A" stroke-width="3" stroke-linecap="round"/> <!-- Body -->
      
      <!-- Hiker legs with walking animation -->
      <g>
        <line x1="0" y1="15" x2="-6" y2="25" stroke="#0F172A" stroke-width="2" stroke-linecap="round">
          <animate attributeName="x2" values="-6;-3;-6" dur="2s" repeatCount="indefinite"/>
          <animate attributeName="y2" values="25;22;25" dur="2s" repeatCount="indefinite"/>
        </line>
        <line x1="0" y1="15" x2="6" y2="25" stroke="#0F172A" stroke-width="2" stroke-linecap="round">
          <animate attributeName="x2" values="6;3;6" dur="2s" repeatCount="indefinite" begin="1s"/>
          <animate attributeName="y2" values="25;22;25" dur="2s" repeatCount="indefinite" begin="1s"/>
        </line>
      </g>
      
      <!-- Hiker arms with walking poles -->
      <g>
        <line x1="0" y1="8" x2="-8" y2="12" stroke="#0F172A" stroke-width="2" stroke-linecap="round">
          <animate attributeName="x2" values="-8;-5;-8" dur="2s" repeatCount="indefinite" begin="1s"/>
          <animate attributeName="y2" values="12;10;12" dur="2s" repeatCount="indefinite" begin="1s"/>
        </line>
        <line x1="-8" y1="12" x2="-10" y2="25" stroke="#475569" stroke-width="1" stroke-linecap="round">
          <animate attributeName="x1" values="-8;-5;-8" dur="2s" repeatCount="indefinite" begin="1s"/>
          <animate attributeName="y1" values="12;10;12" dur="2s" repeatCount="indefinite" begin="1s"/>
        </line>
        
        <line x1="0" y1="8" x2="8" y2="12" stroke="#0F172A" stroke-width="2" stroke-linecap="round">
          <animate attributeName="x2" values="8;5;8" dur="2s" repeatCount="indefinite"/>
          <animate attributeName="y2" values="12;10;12" dur="2s" repeatCount="indefinite"/>
        </line>
        <line x1="8" y1="12" x2="10" y2="25" stroke="#475569" stroke-width="1" stroke-linecap="round">
          <animate attributeName="x1" values="8;5;8" dur="2s" repeatCount="indefinite"/>
          <animate attributeName="y1" values="12;10;12" dur="2s" repeatCount="indefinite"/>
        </line>
      </g>
      
      <!-- Hiker backpack -->
      <path d="M-1,7 C-4,7 -5,10 -4,13 C-3,15 -2,15 -1,15" fill="#4F46E5"/>
    </g>
  </g>
</svg> 