<?xml version="1.0" encoding="UTF-8"?>
<svg width="128px" height="128px" viewBox="0 0 128 128" xmlns="http://www.w3.org/2000/svg">
  <defs>
    <linearGradient id="tennisGradient" x1="0%" y1="0%" x2="100%" y2="100%">
      <stop offset="0%" stop-color="#BBF7D0" stop-opacity="0.3"/>
      <stop offset="100%" stop-color="#4ADE80" stop-opacity="0.5"/>
    </linearGradient>
  </defs>

  <g>
    <!-- Tennis Court Background -->
    <circle cx="64" cy="64" r="58" fill="url(#tennisGradient)"/>
    
    <!-- Court Lines -->
    <g fill="none" stroke="#ffffff" stroke-width="1" stroke-opacity="0.7">
      <path d="M24 64 H104"/>
      <path d="M64 24 V104"/>
      <circle cx="64" cy="64" r="30" stroke-dasharray="2,2"/>
    </g>
    
    <!-- Tennis Racket -->
    <g transform="translate(35, 50)">
      <!-- Racket Handle -->
      <rect x="-3" y="20" width="6" height="25" rx="2" fill="#78350F" stroke="#92400E" stroke-width="0.5"/>
      
      <!-- Racket Head -->
      <ellipse cx="0" cy="0" rx="17" ry="22" fill="none" stroke="#334155" stroke-width="3"/>
      
      <!-- Racket Strings -->
      <g stroke="#475569" stroke-width="0.5">
        <!-- Vertical Strings -->
        <line x1="-12" y1="-15" x2="-12" y2="15"/>
        <line x1="-6" y1="-18" x2="-6" y2="18"/>
        <line x1="0" y1="-20" x2="0" y2="20"/>
        <line x1="6" y1="-18" x2="6" y2="18"/>
        <line x1="12" y1="-15" x2="12" y2="15"/>
        
        <!-- Horizontal Strings -->
        <line x1="-15" y1="-12" x2="15" y2="-12"/>
        <line x1="-17" y1="-6" x2="17" y2="-6"/>
        <line x1="-17" y1="0" x2="17" y2="0"/>
        <line x1="-17" y1="6" x2="17" y2="6"/>
        <line x1="-15" y1="12" x2="15" y2="12"/>
      </g>
      
      <!-- Racket Swing Animation -->
      <animateTransform
        attributeName="transform"
        attributeType="XML"
        type="rotate"
        from="-20"
        to="30"
        dur="1.5s"
        values="-20; 30; -20"
        repeatCount="indefinite"
        additive="sum"/>
    </g>
    
    <!-- Tennis Ball -->
    <g>
      <!-- Ball path -->
      <path id="ballPath" d="M64,90 Q90,75 95,55 Q100,35 80,30 Q60,25 40,40 Q20,55 30,75 Q40,95 64,90" fill="none" stroke="#FFFFFF" stroke-width="0.5" stroke-dasharray="2,2" opacity="0.3"/>
      
      <!-- Ball -->
      <circle cx="0" cy="0" r="7" fill="#FACC15" stroke="#EAB308" stroke-width="0.5">
        <!-- Ball movement -->
        <animateMotion
          path="M64,90 Q90,75 95,55 Q100,35 80,30 Q60,25 40,40 Q20,55 30,75 Q40,95 64,90"
          dur="3s"
          repeatCount="indefinite"/>
        
        <!-- Ball spin -->
        <animateTransform
          attributeName="transform"
          attributeType="XML"
          type="rotate"
          from="0"
          to="360"
          dur="0.5s"
          repeatCount="indefinite"
          additive="sum"/>
      </circle>
      
      <!-- Ball seam -->
      <path d="M-5,-1 C-3,3 3,3 5,-1" fill="none" stroke="#FFFFFF" stroke-width="1" stroke-linecap="round">
        <animateMotion
          path="M64,90 Q90,75 95,55 Q100,35 80,30 Q60,25 40,40 Q20,55 30,75 Q40,95 64,90"
          dur="3s"
          repeatCount="indefinite"/>
          
        <animateTransform
          attributeName="transform"
          attributeType="XML"
          type="rotate"
          from="0"
          to="360"
          dur="0.5s"
          repeatCount="indefinite"
          additive="sum"/>
      </path>
    </g>
    
    <!-- Tennis Player (simplified) -->
    <g transform="translate(90, 75)">
      <!-- Head -->
      <circle cx="0" cy="-15" r="4" fill="#0F172A"/>
      
      <!-- Body -->
      <path d="M0,-11 L0,0" stroke="#0F172A" stroke-width="3" stroke-linecap="round"/>
      
      <!-- Legs with running animation -->
      <path d="M0,0 L-5,10" stroke="#0F172A" stroke-width="2" stroke-linecap="round">
        <animate
          attributeName="d"
          values="M0,0 L-5,10; M0,0 L-2,5; M0,0 L-5,10"
          dur="1.5s"
          repeatCount="indefinite"/>
      </path>
      <path d="M0,0 L5,10" stroke="#0F172A" stroke-width="2" stroke-linecap="round">
        <animate
          attributeName="d"
          values="M0,0 L5,10; M0,0 L2,5; M0,0 L5,10"
          dur="1.5s"
          repeatCount="indefinite"
          begin="0.75s"/>
      </path>
      
      <!-- Arms with swing animation -->
      <path d="M0,-8 L-8,-5" stroke="#0F172A" stroke-width="2" stroke-linecap="round">
        <animate
          attributeName="d"
          values="M0,-8 L-8,-5; M0,-8 L-10,-12; M0,-8 L-8,-5"
          dur="1.5s"
          repeatCount="indefinite"/>
      </path>
    </g>
  </g>
</svg> 