<?xml version="1.0" encoding="UTF-8"?>
<svg width="128px" height="128px" viewBox="0 0 128 128" xmlns="http://www.w3.org/2000/svg">
  <defs>
    <linearGradient id="earthGradient" x1="0%" y1="0%" x2="100%" y2="100%">
      <stop offset="0%" stop-color="#60A5FA" stop-opacity="0.8"/>
      <stop offset="100%" stop-color="#3B82F6" stop-opacity="0.9"/>
    </linearGradient>
  </defs>
  
  <g>
    <!-- Background -->
    <circle cx="64" cy="64" r="58" fill="#F0F9FF" opacity="0.6"/>
    
    <!-- Earth -->
    <g transform="translate(64, 64)">
      <circle cx="0" cy="0" r="40" fill="url(#earthGradient)">
        <!-- Rotation animation -->
        <animateTransform 
          attributeName="transform" 
          attributeType="XML" 
          type="rotate" 
          from="0" 
          to="360" 
          dur="30s" 
          repeatCount="indefinite"/>
      </circle>
      
      <!-- Continents -->
      <g>
        <!-- Africa and Europe -->
        <path d="M0,-25 Q10,-15 5,0 Q0,15 10,25 Q-5,20 -15,10 Q-20,0 -15,-15 Q-5,-25 0,-25" 
              fill="#86EFAC" stroke="#22C55E" stroke-width="1">
          <animateTransform 
            attributeName="transform" 
            attributeType="XML" 
            type="rotate" 
            from="0" 
            to="360" 
            dur="30s" 
            repeatCount="indefinite"/>
        </path>
        
        <!-- Americas -->
        <path d="M-15,-10 Q-10,-20 -5,-25 Q-5,-35 -15,-30 Q-20,-20 -25,-10 Q-20,0 -15,5 Q-20,15 -10,10 Q-15,0 -15,-10" 
              fill="#86EFAC" stroke="#22C55E" stroke-width="1">
          <animateTransform 
            attributeName="transform" 
            attributeType="XML" 
            type="rotate" 
            from="0" 
            to="360" 
            dur="30s" 
            repeatCount="indefinite"/>
        </path>
        
        <!-- Asia and Australia -->
        <path d="M15,-10 Q25,-15 30,-5 Q25,5 30,15 Q20,25 15,15 Q25,5 15,-10" 
              fill="#86EFAC" stroke="#22C55E" stroke-width="1">
          <animateTransform 
            attributeName="transform" 
            attributeType="XML" 
            type="rotate" 
            from="0" 
            to="360" 
            dur="30s" 
            repeatCount="indefinite"/>
        </path>
      </g>
    </g>
    
    <!-- Airplane -->
    <g transform="translate(30, 25)">
      <!-- Airplane body -->
      <path d="M0,0 L60,30 L50,35 L35,30 L30,40 L20,35 L25,25 L0,20 Z" 
            fill="white" stroke="#374151" stroke-width="1">
        <animateMotion
          path="M0,0 Q30,-10 60,0 Q90,10 70,30 Q40,40 10,30 Q-10,20 0,0"
          dur="10s"
          repeatCount="indefinite"/>
        <animateTransform
          attributeName="transform"
          attributeType="XML"
          type="rotate"
          values="0;10;0;-10;0"
          dur="10s"
          repeatCount="indefinite"
          additive="sum"/>
      </path>
    </g>
  </g>
</svg> 